<svg xmlns="http://www.w3.org/2000/svg" width="27" height="29" viewBox="0 0 27 29" class="symbol symbol-leftBarWixBookingsPanel icon"><path fill="#2d4150" fill-rule="evenodd" d="M23.849 23.5H3.151a2 2 0 0 1-1.923-2.549L2.5 16.5h6.6v3h1.846v-3h4.63a19.091 19.091 0 0 0-.49 3h1.976a12.058 12.058 0 0 1 .313-3H24.5l1.272 4.451a2 2 0 0 1-1.923 2.549zM20.04 12.39v-1.867h-6.214v2h3.754A7.058 7.058 0 0 0 16.049 15h-5.1v-4.477H9.478c-.057.38-.463.87-2.477.87V13H9.1v2H2.5V7.5a3 3 0 0 1 3-3h1.562V5a1.5 1.5 0 0 0 3 0v-.5h6.875V5a1.5 1.5 0 0 0 3 0v-.5H21.5a3 3 0 0 1 3 3V15h-6.65a5.221 5.221 0 0 1 2.19-2.61zM7.062 2a1.5 1.5 0 0 1 3 0v2.5h-3V2zm9.875 0a1.5 1.5 0 0 1 3 0v2.5h-3V2zM21 27.5H6A2.5 2.5 0 0 1 3.5 25h20a2.5 2.5 0 0 1-2.5 2.5z" stroke="none" stroke-width="1px"></path></svg>