<svg xmlns="http://www.w3.org/2000/svg" width="16" height="20" viewBox="0 0 16 20" class="symbol symbol-leftBarButtonPages icon"><g fill="none" fill-rule="evenodd" transform="translate(-5 -3)"><path fill-rule="nonzero" d="M0 0h26v26H0z"></path><path fill="#2d3034" d="M14.76 3a3 3 0 0 1 2.12.88l3.24 3.24A3 3 0 0 1 21 9.24V21a2 2 0 0 1-2 2H7a2 2 0 0 1-2-2V5a2 2 0 0 1 2-2h7.76z"></path><rect width="8" height="2" x="9" y="10" fill="#fff" class="icon-transparent icon-animation-1" rx=".5"></rect><rect width="8" height="2" x="9" y="15" fill="#fff" class="icon-transparent icon-animation-2" rx=".5"></rect></g></svg>