<svg xmlns="http://www.w3.org/2000/svg" width="18" height="30" viewBox="0 0 18 30" class="symbol symbol-leftBarNewBlogPanel icon"><g fill="none" fill-rule="evenodd" stroke="none" stroke-width="1px"><path fill="#2d4150" d="M13.5 2h-9a.5.5 0 0 1-.5-.5v-1a.5.5 0 0 1 .5-.5h9a.5.5 0 0 1 .5.5v1a.5.5 0 0 1-.5.5M13.662 4H4.338a.5.5 0 0 0-.464.314L.001 14l8 16h.5V16.929a1.997 1.997 0 0 1 .06-3.882A2.002 2.002 0 0 1 11.002 15c0 .931-.64 1.706-1.5 1.929V30h.5l8-16-3.878-9.686A.5.5 0 0 0 13.663 4" stroke="none" stroke-width="1px"></path></g></svg>