<svg xmlns="http://www.w3.org/2000/svg" width="21" height="24" viewBox="0 0 21 24" class="symbol symbol-wixDataPanel icon"><path fill="#2d4150" fill-rule="evenodd" d="M0 18.522c2.046 1.425 5.979 2.391 10.5 2.391s8.454-.966 10.5-2.39v1.622c0 .984-.567 1.87-1.446 2.26C17.355 23.383 14.117 24 10.5 24c-3.615 0-6.855-.618-9.054-1.594A2.462 2.462 0 0 1 0 20.146v-1.624zM10.5 0c3.617 0 6.855.618 9.054 1.594A2.462 2.462 0 0 1 21 3.855v.007c0 .984-.567 1.871-1.446 2.261-2.199.976-5.437 1.595-9.054 1.595s-6.855-.619-9.054-1.595A2.462 2.462 0 0 1 0 3.863v-.008c0-.984.567-1.87 1.446-2.26C3.645.617 6.883 0 10.5 0zM0 13.044c2.046 1.425 5.979 2.391 10.5 2.391s8.454-.966 10.5-2.39v1.622c0 .984-.567 1.87-1.446 2.26-2.199.977-5.437 1.595-9.054 1.595-3.615 0-6.855-.618-9.054-1.594A2.462 2.462 0 0 1 0 14.668v-1.624zm0-5.326c2.046 1.424 5.979 2.39 10.5 2.39s8.454-.966 10.5-2.39V9.34c0 .984-.567 1.87-1.446 2.26-2.199.976-5.437 1.594-9.054 1.594-3.615 0-6.855-.617-9.054-1.594A2.462 2.462 0 0 1 0 9.341V7.718z" stroke="none" stroke-width="1px"></path></svg>