<svg xmlns="http://www.w3.org/2000/svg" width="29" height="29" viewBox="0 0 29 29" class="symbol symbol-zoomOut_v3 btn-symbol"><path fill="#2D4150" fill-rule="evenodd" d="M11.965 17.035a1 1 0 0 1 1 1v3.082h-1.018v-2.342L7.72 23 7 22.28l4.225-4.226-2.333-.001v-1.018zm9.143 0v1.018h-2.333L23 22.28l-.72.72-4.226-4.225-.001 2.342h-1.018v-3.082l.006-.117a1 1 0 0 1 .994-.883h3.073zM7.72 7l4.226 4.225.001-2.342h1.018v3.082a1 1 0 0 1-1 1H8.892v-1.018h2.333L7 7.72 7.72 7zm14.56 0l.72.72-4.225 4.226 2.333.001v1.018h-3.073a1 1 0 0 1-.994-.883l-.006-.117V8.883h1.018v2.342L22.28 7z"></path></svg>