<svg xmlns="http://www.w3.org/2000/svg" width="25" height="24" viewBox="0 0 25 24" class="symbol symbol-leftBarMediaPanelC icon"><path d="M21.5 21.003c.38 0 .62-.41.439-.75l-3.72-6.68a.991.991 0 0 0-1.74 0l-2.787 5.007a.3.3 0 0 1-.52.008l-.694-1.154a1.001 1.001 0 0 0-1.718-.001l-1.69 2.81a.501.501 0 0 0 .43.76h12zm-10-11c-.83 0-1.5.67-1.5 1.5 0 .82.67 1.5 1.5 1.5s1.5-.68 1.5-1.5c0-.83-.67-1.5-1.5-1.5zm10.5-3c1.66 0 3 1.34 3 3v11A3 3 0 0 1 22 24H9a3 3 0 0 1-3-2.997v-11c0-1.66 1.34-3 3-3h13zM20 4v1H9a5 5 0 0 0-5 5v7.003H2a2 2 0 0 1-2-2V2a2 2 0 0 1 2-2h4.172a2 2 0 0 1 1.414.585L9 2h9a2 2 0 0 1 2 2z" stroke="none" fill="#2d4150" stroke-width="1px"></path></svg>