<svg xmlns="http://www.w3.org/2000/svg" width="25" height="25" viewBox="0 0 25 25" class="symbol symbol-leftBarAppMarketPanel-D icon"><g id="Page-1" fill="none" fill-rule="evenodd" stroke="none" stroke-width="1px"><path id="Combined-Shape" fill="#2d4150" d="M19 6V3h-2v3h-3v2h3v3h2V8h3V6h-3zM0 6.997C0 5.894.896 5 1.997 5h5.006C8.106 5 9 5.896 9 6.997v5.006A1.998 1.998 0 0 1 7.003 14H1.997A1.998 1.998 0 0 1 0 12.003V6.997zm0 11C0 16.894.896 16 1.997 16h5.006C8.106 16 9 16.896 9 17.997v5.006A1.998 1.998 0 0 1 7.003 25H1.997A1.998 1.998 0 0 1 0 23.003v-5.006zm11 0c0-1.103.896-1.997 1.997-1.997h5.006c1.103 0 1.997.896 1.997 1.997v5.006A1.998 1.998 0 0 1 18.003 25h-5.006A1.998 1.998 0 0 1 11 23.003v-5.006zm0-15.991C11 .898 11.897 0 13.006 0h9.988C24.102 0 25 .897 25 2.006v9.988A2.005 2.005 0 0 1 22.994 14h-9.988A2.005 2.005 0 0 1 11 11.994V2.006z" stroke="none" stroke-width="1px"></path></g></svg>