<svg xmlns="http://www.w3.org/2000/svg" width="29" height="21" viewBox="0 0 29 21" class="symbol symbol-shoutOutLeftBarIcon icon"><path id="Fill-1" d="M10.756 0C5.098 0 .512 4.586.512 10.244c0 1.861.504 3.6 1.372 5.105L0 21l5.65-1.884a10.184 10.184 0 0 0 5.106 1.372C16.414 20.488 21 15.902 21 10.244 21 4.586 16.414 0 10.756 0" stroke="none" fill="#2d4150" stroke-width="1px"></path><path id="Fill-2" d="M25.03 20c-.196 0-.395-.052-.57-.161-.475-.295-.602-.89-.287-1.332 1.81-2.525 2.765-5.467 2.765-8.507 0-3.039-.956-5.98-2.765-8.506-.315-.442-.188-1.037.287-1.332.473-.295 1.113-.175 1.429.266C27.925 3.271 29 6.581 29 10c0 3.421-1.075 6.73-3.111 9.573a1.05 1.05 0 0 1-.86.427" stroke="none" fill="#2d4150" stroke-width="1px"></path><path id="Fill-3" d="M22.132 17c-.18 0-.364-.037-.532-.116-.553-.256-.76-.852-.466-1.331 1.047-1.7 1.6-3.62 1.6-5.553 0-1.932-.553-3.852-1.6-5.553-.295-.479-.087-1.075.466-1.33.55-.256 1.237-.076 1.533.404C24.354 5.505 25 7.745 25 10c0 2.254-.646 4.495-1.867 6.479-.205.332-.596.52-1 .52" stroke="none" fill="#2d4150" stroke-width="1px"></path></svg>