<svg xmlns="http://www.w3.org/2000/svg" width="26" height="26" viewBox="0 0 26 26" class="symbol symbol-leftBarButtonBackground icon"><g fill="none" fill-rule="evenodd"><path fill-rule="nonzero" d="M0 0h26v26H0z"></path><path fill="currentColor" stroke="currentColor" d="M18.5 19h-11a.5.5 0 0 1-.5-.5v-11a.5.5 0 0 1 .5-.5h11a.5.5 0 0 1 .5.5v11a.5.5 0 0 1-.5.5"></path><path fill="#2d3034" d="M-1.861 16L-8 9.861l18.5-18.5L16.639-2.5z" class="icon-transparent icon-animation-2"></path><path fill="#fff" d="M10.139 28L4 21.861l18.5-18.5L28.639 9.5z" class="icon-transparent icon-animation-1"></path><path fill="#2d3034" d="M20 4a2 2 0 0 1 2 2v14a2 2 0 0 1-2 2H6a2 2 0 0 1-2-2V6a2 2 0 0 1 2-2h14zm-1.5 3h-11a.5.5 0 0 0-.5.5v11a.5.5 0 0 0 .5.5h11a.5.5 0 0 0 .5-.5v-11a.5.5 0 0 0-.5-.5z"></path><path fill="#fff" d="M26 0v26H0V0h26zm-6 4H6a2 2 0 0 0-2 2v14a2 2 0 0 0 2 2h14a2 2 0 0 0 2-2V6a2 2 0 0 0-2-2z" class="icon-transparent"></path></g></svg>