<svg xmlns="http://www.w3.org/2000/svg" width="23" height="22" viewBox="0 0 23 22" class="symbol symbol-leftBarButtonTheme icon"><g fill="none" fill-rule="evenodd"><path fill-rule="nonzero" d="M-1-3h26v26H-1z"></path><path fill="#2d3034" d="M8 .994L2 14.993h3l1.285-3h6.43l1.285 3h3l-6-14H8zm1.5 3.499l1.928 4.5H7.572l1.928-4.5z"></path><g class="icon-animation-1"><path fill="#fff" d="M17.546.8l-2.49 4.62-3.42 6.35a6.672 6.672 0 0 0 1.163 7.93 6.67 6.67 0 0 0 4.747 1.965 6.667 6.667 0 0 0 4.746-1.966 6.67 6.67 0 0 0 1.163-7.93l-3.421-6.35L17.546.8zm0 5.96l3.42 6.35a3.886 3.886 0 1 1-6.841 0l3.42-6.35z" class="icon-transparent"></path><path fill="#2d3034" d="M21.873 12.496l-4.327-8.035-4.328 8.034a4.946 4.946 0 0 0 .85 5.81 4.897 4.897 0 0 0 3.478 1.436 4.894 4.894 0 0 0 3.475-1.437 4.945 4.945 0 0 0 .852-5.808"></path></g></g></svg>