<svg xmlns="http://www.w3.org/2000/svg" width="78" height="32" viewBox="0 0 78 32" class="symbol symbol-wixLogo"><path fill="#000" d="M44.522 1.391c-1.53.835-2.087 2.226-2.087 5.983 0 0 .835-.696 1.948-1.113.835-.278 1.53-.835 1.948-1.113 1.252-.974 1.53-2.226 1.53-4.313 0 0-2.087 0-3.339.557z"></path><path d="M35.478 2.365c-1.252 1.113-1.67 2.922-1.67 2.922l-4.174 16.139-3.478-13.217c-.278-1.391-.974-3.2-1.948-4.313-1.252-1.53-3.757-1.53-4.035-1.53s-2.783.139-4.035 1.53c-.974 1.113-1.53 2.922-1.948 4.313l-3.478 13.217L6.538 5.287s-.417-1.809-1.67-2.922C3.059.556-.002.835-.002.835l7.93 30.191s2.643.139 3.896-.417c1.67-.835 2.504-1.53 3.617-5.704.974-3.617 3.478-14.47 3.757-15.165.139-.417.278-1.252.974-1.252s.835.835.974 1.252c.278.835 2.922 11.548 3.757 15.165 1.113 4.174 1.809 4.73 3.617 5.704 1.252.696 3.896.417 3.896.417L40.346.835c.139 0-2.922-.278-4.87 1.53zM47.861 5.843s-.557.835-1.67 1.391c-.696.417-1.391.696-2.226 1.113-1.252.557-1.67 1.252-1.67 2.365v20.313s1.948.278 3.339-.417c1.67-.835 2.087-1.67 2.087-5.426V5.843zM67.757 16L77.914.974s-4.313-.696-6.4 1.252c-1.391 1.252-2.922 3.478-2.922 3.478l-3.757 5.426c-.139.278-.417.557-.835.557s-.557-.278-.835-.557l-3.757-5.426s-1.53-2.226-2.922-3.478c-2.087-1.948-6.4-1.252-6.4-1.252L60.243 16 50.086 31.026s4.452.557 6.539-1.391c1.391-1.252 2.643-3.2 2.643-3.2l3.757-5.426c.139-.278.417-.557.835-.557s.557.278.835.557l3.757 5.426s1.391 1.948 2.783 3.2c2.087 1.948 6.539 1.391 6.539 1.391L67.757 16z"></path></svg>